<?xml version="1.0" standalone="no"?>
<!DOCTYPE svg PUBLIC "-//W3C//DTD SVG 20010904//EN"
 "http://www.w3.org/TR/2001/REC-SVG-20010904/DTD/svg10.dtd">
<svg version="1.0" xmlns="http://www.w3.org/2000/svg"
 width="512.000000pt" height="512.000000pt" viewBox="0 0 512.000000 512.000000"
 preserveAspectRatio="xMidYMid meet">
<metadata>
Created by potrace 1.14, written by Peter Selinger 2001-2017
</metadata>
<g transform="translate(0.000000,512.000000) scale(0.100000,-0.100000)"
fill="#000000" stroke="none">
<path d="M1817 5094 c-1 -1 -33 -4 -72 -8 -38 -3 -81 -8 -95 -11 -14 -3 -41
-7 -60 -10 -19 -2 -50 -9 -67 -14 -18 -5 -33 -8 -33 -6 0 2 -18 -2 -40 -10
-22 -8 -42 -14 -45 -15 -3 0 -6 0 -7 -1 -2 0 -10 -2 -18 -4 -35 -7 -45 -10
-50 -15 -3 -3 -30 -13 -60 -24 -30 -10 -66 -23 -80 -29 -14 -6 -27 -11 -30
-12 -3 0 -15 -6 -27 -13 -13 -7 -23 -9 -23 -5 0 4 -5 0 -11 -10 -6 -9 -14 -15
-20 -12 -5 4 -9 1 -9 -4 0 -6 -3 -11 -7 -10 -15 2 -53 -13 -53 -21 0 -4 -8
-10 -17 -14 -10 -3 -27 -11 -38 -18 -11 -7 -45 -28 -75 -47 -30 -20 -59 -39
-65 -43 -5 -5 -32 -25 -60 -46 -27 -20 -62 -49 -76 -64 -15 -15 -30 -24 -33
-21 -3 4 -6 -1 -6 -11 0 -9 -4 -15 -9 -11 -6 3 -15 -4 -21 -15 -6 -11 -15 -18
-21 -15 -5 4 -9 0 -9 -9 0 -8 -13 -26 -30 -39 -16 -14 -30 -31 -30 -38 0 -7
-3 -9 -7 -6 -3 4 -16 -6 -27 -21 -12 -16 -27 -35 -34 -43 -30 -35 -78 -99
-120 -164 -26 -38 -50 -72 -54 -73 -5 -2 -6 -8 -2 -13 3 -5 0 -9 -6 -9 -6 0
-9 -4 -5 -9 3 -5 -1 -16 -9 -23 -7 -8 -17 -24 -20 -36 -4 -12 -12 -22 -18 -22
-6 0 -9 -3 -5 -6 3 -3 -5 -27 -18 -53 -22 -44 -46 -97 -50 -113 -2 -5 -4 -11
-5 -15 -1 -5 -2 -11 -1 -15 0 -5 -3 -8 -7 -8 -4 0 -8 -8 -9 -17 -1 -10 -6 -29
-11 -43 -5 -14 -10 -28 -11 -32 -1 -4 -8 -25 -16 -47 -7 -22 -16 -56 -19 -76
-4 -21 -8 -40 -10 -44 -3 -3 -7 -25 -10 -47 -4 -22 -9 -51 -11 -64 -26 -130
-25 -474 1 -604 2 -12 7 -34 9 -51 3 -16 17 -73 31 -125 14 -52 27 -99 28
-105 8 -33 42 -115 48 -115 4 0 5 -6 2 -14 -3 -8 -1 -17 5 -21 6 -3 11 -15 11
-26 0 -10 5 -19 10 -19 6 0 10 -9 10 -20 0 -11 5 -20 11 -20 5 0 7 -4 4 -10
-3 -5 -1 -10 4 -10 6 0 11 -8 11 -19 0 -10 8 -29 19 -42 10 -13 21 -34 25 -46
4 -13 12 -23 17 -23 5 0 9 -6 9 -14 0 -8 6 -21 13 -28 6 -7 25 -33 41 -58 40
-64 105 -148 145 -189 18 -19 40 -45 48 -58 8 -13 22 -23 31 -23 8 0 13 -3 10
-6 -5 -5 37 -54 47 -54 2 0 26 -20 52 -45 73 -68 82 -75 92 -75 5 0 11 -3 13
-7 5 -12 125 -93 137 -93 6 0 11 -3 11 -8 0 -4 17 -16 38 -27 20 -10 44 -25
54 -33 9 -7 22 -15 30 -16 7 -1 38 -14 68 -29 47 -22 101 -46 120 -52 3 -1 19
-7 35 -14 17 -7 39 -15 50 -17 23 -6 35 -9 55 -16 61 -21 127 -37 223 -53 15
-3 39 -7 55 -10 89 -16 315 -22 439 -11 102 9 130 13 273 41 8 2 15 4 15 5 0
1 7 3 15 5 60 12 180 50 227 71 17 8 36 14 42 14 6 0 11 4 11 8 0 5 6 9 14 9
16 0 150 65 154 76 2 4 9 7 16 7 8 0 25 9 39 20 15 12 28 20 30 18 2 -2 15 5
28 14 107 78 110 80 127 66 30 -25 202 -202 202 -208 0 -4 -9 -15 -20 -25 -11
-10 -20 -23 -20 -30 0 -6 -5 -16 -12 -23 -11 -11 -15 -23 -21 -67 -2 -12 -6
-26 -10 -32 -3 -5 -4 -13 0 -16 3 -4 7 -21 8 -39 2 -28 8 -60 15 -78 1 -3 2
-8 1 -12 0 -5 4 -8 9 -8 6 0 10 -5 10 -11 0 -13 -34 21 394 -408 203 -204 373
-371 378 -371 4 0 8 -4 8 -10 0 -12 135 -142 161 -154 10 -5 19 -12 19 -16 0
-8 128 -73 150 -76 8 -1 37 -7 65 -13 105 -25 242 -6 359 49 56 27 78 42 146
104 31 28 69 78 69 90 -1 5 6 13 15 18 9 5 14 13 11 19 -4 5 -2 9 3 9 5 0 13
10 17 23 4 12 8 24 9 27 35 78 49 168 42 260 -8 102 -41 197 -99 283 -26 39
-927 943 -927 931 0 -5 -7 1 -15 12 -27 39 -159 61 -240 41 -31 -8 -82 -36
-95 -52 -7 -8 -17 -15 -22 -15 -14 0 -210 199 -212 217 -2 9 8 27 21 41 13 14
23 31 23 38 0 7 4 14 9 16 9 3 40 52 63 98 7 14 15 27 18 30 10 8 106 222 110
245 0 3 8 21 16 42 9 20 18 46 21 57 8 38 11 51 13 51 1 0 3 7 5 15 2 8 6 24
9 35 15 64 35 167 41 215 13 100 14 124 14 260 0 130 -1 159 -13 245 -11 78
-15 101 -25 145 -6 25 -13 59 -16 75 -4 17 -8 36 -11 43 -2 7 -3 13 -3 15 0 1
-16 47 -36 102 -20 55 -37 106 -38 113 0 6 -4 12 -9 12 -4 0 -8 5 -8 10 0 13
-38 97 -59 129 -8 13 -16 31 -17 39 -2 8 -6 18 -11 21 -4 3 -26 35 -47 71 -22
36 -43 67 -48 68 -4 2 -8 10 -8 17 0 7 -3 15 -7 17 -5 2 -27 28 -51 60 -24 31
-63 77 -87 102 -25 25 -45 49 -45 54 0 4 -13 16 -30 25 -16 10 -30 25 -30 33
0 8 -6 14 -13 14 -7 0 -19 9 -27 20 -8 11 -18 20 -23 20 -4 0 -18 11 -31 25
-13 14 -26 25 -30 25 -4 0 -18 11 -32 25 -14 14 -28 25 -33 25 -4 0 -16 8 -27
18 -10 9 -32 24 -49 32 -16 8 -37 22 -45 30 -8 8 -39 26 -67 39 -29 14 -53 28
-53 33 0 4 -4 8 -10 8 -5 0 -35 12 -67 26 -114 51 -148 65 -177 71 -11 2 -24
7 -30 12 -6 5 -24 10 -41 12 -16 2 -35 7 -42 12 -6 4 -24 10 -40 13 -15 3 -44
9 -63 14 -98 25 -241 41 -393 44 -75 1 -138 1 -140 0z"/>
</g>
</svg>
