<?xml version="1.0" standalone="no"?>
<!DOCTYPE svg PUBLIC "-//W3C//DTD SVG 20010904//EN"
 "http://www.w3.org/TR/2001/REC-SVG-20010904/DTD/svg10.dtd">
<svg version="1.0" xmlns="http://www.w3.org/2000/svg"
 width="512.000000pt" height="512.000000pt" viewBox="0 0 512.000000 512.000000"
 preserveAspectRatio="xMidYMid meet">
<metadata>
Created by potrace 1.14, written by Peter Selinger 2001-2017
</metadata>
<g transform="translate(0.000000,512.000000) scale(0.100000,-0.100000)"
fill="#000000" stroke="none">
<path d="M2298 4704 c-2 -1 -26 -5 -53 -8 -28 -4 -61 -8 -75 -11 -14 -3 -38
-7 -55 -10 -30 -5 -58 -11 -95 -20 -11 -3 -28 -7 -37 -9 -10 -2 -31 -9 -48
-16 -16 -6 -31 -11 -32 -11 -2 1 -5 0 -8 0 -3 -1 -9 -3 -15 -4 -5 -1 -12 -4
-15 -5 -3 -1 -8 -3 -12 -4 -39 -9 -113 -40 -113 -47 0 -6 -4 -7 -10 -4 -5 3
-22 -1 -38 -9 -16 -8 -32 -12 -36 -9 -3 4 -6 1 -6 -5 0 -7 -4 -12 -9 -12 -11
0 -163 -71 -171 -80 -5 -5 -60 -36 -127 -72 -24 -12 -43 -26 -43 -30 0 -4 -7
-8 -15 -8 -8 0 -15 -4 -15 -10 0 -5 -5 -10 -11 -10 -11 0 -138 -89 -171 -119
-9 -9 -31 -27 -50 -41 -18 -13 -50 -41 -70 -61 -21 -20 -39 -35 -40 -34 -2 1
-35 -31 -74 -71 -39 -41 -69 -74 -67 -74 2 0 -9 -12 -25 -27 -16 -16 -55 -62
-88 -103 -197 -248 -314 -463 -469 -865 -5 -11 -9 -26 -11 -33 -1 -8 -6 -21
-10 -30 -4 -9 -8 -24 -10 -32 -3 -18 -23 -86 -35 -120 -5 -14 -11 -36 -13 -50
-3 -14 -5 -25 -6 -25 -2 0 -9 -30 -14 -60 -2 -11 -7 -28 -11 -37 -4 -9 -4 -22
0 -28 3 -5 2 -10 -3 -10 -5 0 -9 -6 -9 -12 0 -7 -3 -26 -6 -43 -16 -84 -37
-217 -43 -270 -3 -33 -8 -73 -10 -90 -15 -114 -19 -291 -19 -900 0 -379 3
-706 7 -725 8 -44 28 -101 41 -118 5 -6 6 -12 1 -12 -5 0 -4 -4 1 -8 6 -4 19
-23 29 -42 11 -19 28 -42 38 -51 10 -9 18 -21 18 -26 0 -5 17 -23 37 -39 20
-16 42 -35 49 -41 7 -7 17 -13 23 -13 5 0 16 -6 23 -13 19 -18 76 -44 149 -67
63 -19 97 -20 2129 -20 l2065 0 85 21 c47 12 88 26 91 31 3 5 13 10 21 12 44
6 208 151 208 183 0 7 5 13 10 13 6 0 10 5 10 12 0 6 6 19 14 27 7 9 24 48 37
86 l24 70 0 580 0 580 -29 52 c-27 50 -103 113 -134 113 -7 0 -12 4 -12 9 0 4
-11 6 -25 3 -14 -2 -25 0 -25 4 0 5 -21 8 -47 7 -27 -1 -48 -2 -48 -3 0 -1
-18 -3 -40 -4 -63 -4 -162 -59 -245 -135 -41 -38 -77 -68 -79 -65 -2 2 -10 -1
-18 -7 -7 -6 -13 -8 -13 -4 0 4 -6 3 -12 -3 -7 -5 -29 -13 -48 -18 -44 -10
-42 -9 -62 -18 -9 -4 -21 -5 -27 -2 -5 4 -12 2 -15 -3 -6 -9 -84 -25 -123 -25
-13 0 -23 -4 -23 -8 0 -5 -11 -6 -24 -4 -14 2 -27 -1 -30 -7 -3 -8 -5 -8 -5 1
-1 7 -6 10 -13 6 -6 -4 -28 -9 -47 -11 -63 -5 -304 -5 -356 1 -127 14 -200 24
-200 27 0 1 -13 3 -30 4 -16 2 -30 4 -30 5 0 1 -7 3 -15 5 -18 4 -98 24 -122
30 -10 3 -27 7 -37 9 -11 3 -30 10 -43 17 -13 7 -23 11 -23 10 0 -2 -12 1 -70
21 -85 29 -278 123 -337 165 -27 18 -48 31 -48 28 0 -7 -159 122 -217 177 -29
27 -53 54 -53 60 0 6 -3 8 -7 5 -3 -4 -18 10 -31 31 -14 20 -29 39 -32 42 -13
9 -97 144 -112 180 -9 19 -23 51 -31 70 -9 19 -18 49 -22 65 -4 17 -9 37 -12
45 -27 72 -34 256 -13 370 25 138 90 299 160 394 28 39 160 162 187 177 16 8
30 17 33 20 7 8 134 70 151 73 8 1 34 9 59 16 25 7 54 15 65 17 44 7 60 11 60
12 0 13 304 18 390 7 33 -5 71 -10 85 -11 53 -7 183 -36 229 -51 26 -8 57 -17
67 -19 10 -2 21 -4 24 -5 3 -1 8 -2 13 -1 4 0 7 -3 7 -9 0 -5 8 -10 18 -10 9
0 46 -18 82 -40 36 -22 93 -54 127 -70 69 -33 211 -71 219 -59 2 5 10 6 17 3
25 -9 67 35 74 79 4 23 6 47 4 52 -1 6 -7 33 -12 60 -11 60 -12 62 -26 100
-23 62 -26 70 -29 84 -1 8 -9 18 -16 22 -7 5 -10 9 -5 9 4 0 1 10 -8 23 -8 13
-12 27 -8 30 3 4 1 7 -5 7 -6 0 -17 11 -24 24 -41 74 -55 97 -96 151 -57 75
-177 212 -216 245 -17 14 -39 34 -50 45 -12 11 -50 43 -86 70 -36 28 -66 53
-68 58 -2 4 -8 7 -13 7 -10 0 -101 61 -111 75 -5 7 -8 7 -8 0 0 -6 -3 -6 -8 1
-4 6 -20 17 -37 26 -16 8 -48 25 -70 36 -67 36 -175 82 -190 82 -8 0 -15 4
-15 8 0 7 -94 36 -110 35 -3 -1 -12 3 -21 8 -9 4 -27 10 -40 13 -101 23 -135
29 -219 41 -80 11 -403 18 -412 9z"/>
</g>
</svg>
