<?xml version="1.0" standalone="no"?>
<!DOCTYPE svg PUBLIC "-//W3C//DTD SVG 20010904//EN"
 "http://www.w3.org/TR/2001/REC-SVG-20010904/DTD/svg10.dtd">
<svg version="1.0" xmlns="http://www.w3.org/2000/svg"
 width="512.000000pt" height="512.000000pt" viewBox="0 0 512.000000 512.000000"
 preserveAspectRatio="xMidYMid meet">
<metadata>
Created by potrace 1.14, written by Peter Selinger 2001-2017
</metadata>
<g transform="translate(0.000000,512.000000) scale(0.100000,-0.100000)"
fill="#000000" stroke="none">
<path d="M4208 5115 c-2 -2 -35 -5 -73 -6 -73 -3 -183 -26 -225 -49 -14 -7
-25 -12 -25 -11 0 4 -79 -33 -85 -40 -3 -3 -21 -14 -40 -25 -19 -10 -41 -25
-48 -31 -7 -7 -17 -13 -20 -13 -12 0 -145 -131 -179 -175 -17 -22 -45 -69 -63
-105 -18 -36 -36 -72 -40 -81 -5 -9 -12 -33 -15 -53 -4 -20 -10 -36 -14 -36
-10 0 -51 48 -51 60 0 6 -3 10 -7 10 -5 0 -24 16 -44 35 -20 19 -39 31 -43 28
-3 -4 -6 -2 -6 4 0 12 -51 46 -115 76 -57 27 -168 67 -173 62 -2 -2 -15 1 -29
6 -54 20 -199 29 -283 17 -58 -8 -95 -15 -95 -18 0 -1 -11 -3 -24 -6 -46 -8
-168 -67 -247 -120 -84 -55 -225 -186 -284 -264 -19 -25 -37 -47 -40 -50 -3
-3 -27 -38 -53 -79 -34 -54 -44 -78 -36 -87 8 -10 18 -8 47 7 86 43 219 94
239 91 2 -1 17 3 34 8 112 32 329 33 517 2 65 -11 72 -18 36 -34 -16 -7 -33
-16 -39 -21 -5 -4 -39 -26 -74 -50 -36 -23 -71 -46 -79 -52 -47 -31 -162 -142
-155 -149 4 -3 -1 -6 -10 -6 -9 0 -17 -3 -17 -8 0 -4 -12 -21 -27 -38 -35 -38
-84 -102 -83 -109 0 -3 -8 -13 -19 -24 -26 -26 -104 -184 -127 -256 -8 -26
-36 -132 -40 -149 -27 -139 -24 -356 6 -517 20 -105 66 -267 81 -283 5 -6 9
-16 9 -23 0 -7 16 -47 36 -89 26 -56 39 -74 50 -70 9 3 18 6 20 6 2 0 4 7 4
15 0 8 4 15 9 15 5 0 8 6 8 13 -2 26 16 87 26 87 6 0 8 3 4 6 -3 4 0 19 8 34
8 15 11 30 8 34 -4 3 -1 6 5 6 7 0 11 3 10 8 -4 10 84 215 95 223 5 3 8 9 8
13 -2 10 63 140 72 144 4 2 7 8 7 13 0 20 150 259 193 307 11 12 16 22 11 22
-5 0 -4 4 3 8 6 4 25 25 43 47 55 70 113 137 168 194 28 30 52 56 52 58 0 10
240 243 250 243 9 0 14 -28 13 -67 -1 -7 3 -13 7 -13 5 0 9 -8 8 -17 0 -10 3
-29 6 -43 14 -63 27 -128 30 -155 2 -16 7 -52 10 -80 3 -27 8 -60 10 -73 28
-141 28 -631 1 -752 -4 -14 -9 -38 -11 -54 -4 -22 -40 -151 -80 -291 -3 -11
-6 -26 -6 -32 -1 -7 -4 -13 -8 -13 -4 0 -7 -7 -7 -15 0 -14 -18 -62 -54 -139
-10 -22 -16 -43 -13 -48 3 -4 0 -8 -5 -8 -6 0 -11 -8 -11 -18 0 -10 -5 -23
-11 -29 -6 -6 -11 -17 -13 -26 -1 -8 -9 -30 -18 -49 -9 -18 -30 -63 -47 -100
l-30 -67 -108 4 c-133 6 -526 6 -608 0 -33 -2 -94 -7 -135 -10 -41 -4 -91 -9
-110 -10 -19 -2 -35 -4 -35 -5 0 -2 -11 -4 -25 -5 -37 -4 -91 -12 -120 -19
-14 -3 -36 -8 -50 -10 -41 -7 -122 -27 -170 -43 -25 -8 -53 -16 -63 -18 -10
-2 -32 -11 -49 -20 -17 -8 -35 -15 -40 -15 -14 0 -167 -78 -202 -103 -17 -12
-35 -22 -39 -22 -4 0 -11 -5 -15 -10 -21 -31 -111 -104 -132 -109 -14 -2 -32
-7 -40 -10 -8 -3 -27 -8 -42 -11 -40 -7 -66 -13 -133 -30 -65 -17 -74 -19
-124 -34 -19 -6 -37 -8 -42 -6 -4 3 -9 2 -11 -2 -1 -5 -39 -20 -83 -35 -44
-14 -93 -32 -110 -39 -16 -7 -35 -13 -41 -14 -20 -5 -232 -113 -244 -125 -3
-3 -24 -18 -47 -34 -24 -16 -43 -33 -43 -37 0 -5 -5 -9 -11 -9 -23 0 -108
-112 -126 -166 -14 -40 -11 -133 5 -161 6 -12 12 -29 12 -38 0 -8 7 -18 15
-21 8 -4 15 -11 15 -18 0 -13 80 -91 130 -126 19 -13 37 -27 40 -30 6 -6 39
-25 85 -49 16 -9 33 -20 36 -24 3 -5 8 -8 10 -7 5 2 39 -12 112 -44 82 -37
356 -127 390 -128 15 -1 27 -5 27 -11 0 -5 9 -7 20 -4 11 3 20 1 20 -4 0 -5 3
-8 8 -7 4 1 31 -4 61 -10 30 -7 56 -10 59 -7 3 3 10 1 16 -4 11 -8 130 -34
216 -46 14 -2 41 -7 60 -11 32 -6 49 -8 135 -19 17 -2 48 -6 70 -10 39 -6 54
-7 178 -19 31 -3 83 -9 115 -12 320 -32 1018 -37 1312 -9 75 7 216 18 238 19
12 0 22 2 22 5 0 4 21 6 48 7 42 1 127 10 171 19 9 2 44 7 76 11 62 8 73 10
78 13 1 2 13 4 27 6 77 11 97 15 120 20 14 3 40 8 59 11 18 3 43 8 55 11 11 3
30 6 41 8 11 2 21 4 23 5 2 3 2 3 57 15 22 4 45 10 50 11 6 2 35 10 65 19 30
9 60 17 65 19 6 1 37 11 70 21 33 10 63 19 68 21 4 1 10 3 15 4 4 1 10 2 15 1
4 0 7 4 7 11 0 6 3 9 6 5 3 -3 30 5 60 18 30 13 54 22 54 20 0 -7 212 105 258
137 68 47 157 139 183 190 16 32 22 60 21 108 0 83 -3 100 -15 100 -6 0 -8 3
-4 6 8 9 -42 80 -88 126 -41 40 -167 128 -184 128 -6 0 -11 3 -11 8 0 8 -49
32 -67 32 -7 0 -13 3 -13 8 0 4 -18 15 -39 24 -22 10 -72 50 -113 90 -40 41
-106 96 -147 123 -91 60 -257 146 -265 138 -3 -4 -6 -1 -6 5 0 7 -10 12 -23
12 -13 0 -27 4 -33 9 -9 9 -138 57 -177 66 -59 13 -186 51 -192 57 -4 4 2 46
13 95 12 48 24 113 27 143 3 30 8 65 11 77 3 12 7 41 9 65 3 42 12 124 20 183
19 134 27 716 13 866 -12 127 -19 183 -24 197 -2 8 -7 37 -10 65 -4 29 -10 60
-16 70 -5 9 -7 17 -4 17 2 0 0 15 -4 33 -16 63 -49 183 -65 237 -9 30 -18 63
-20 72 -2 9 -8 25 -14 36 -6 11 -7 22 -4 26 3 3 1 6 -6 6 -7 0 -10 4 -7 8 2 4
-1 21 -9 37 -24 55 -40 100 -37 108 1 4 -3 7 -9 7 -5 0 -7 5 -4 10 5 8 11 8
19 1 7 -6 29 -11 49 -13 20 -1 37 -5 37 -9 0 -4 17 -10 38 -15 42 -9 50 -10
57 -14 3 -1 8 -3 13 -4 4 -1 17 -7 30 -14 12 -7 22 -10 22 -7 0 3 13 -1 29 -9
16 -9 31 -12 35 -9 3 4 6 1 6 -6 0 -8 7 -11 15 -7 8 3 15 1 15 -4 0 -6 6 -10
13 -10 33 0 346 -178 392 -223 6 -7 27 -23 45 -37 19 -14 58 -49 88 -77 31
-29 59 -53 64 -53 4 0 8 -5 8 -11 0 -6 17 -27 38 -47 21 -20 56 -59 78 -87 39
-50 48 -61 71 -89 25 -29 123 -184 123 -194 0 -16 37 -52 54 -52 17 0 18 1 20
40 1 14 4 30 7 35 3 6 5 27 5 48 -1 20 2 37 5 37 4 0 5 66 3 148 -4 134 -8
197 -14 197 -1 0 -3 15 -5 34 -2 19 -7 46 -11 60 -4 14 -9 35 -11 46 -9 40
-15 57 -44 122 -10 24 -19 47 -19 53 0 5 -5 10 -11 10 -5 0 -8 4 -5 9 3 4 -10
34 -29 66 -19 31 -35 61 -35 66 0 5 -5 9 -10 9 -6 0 -14 8 -17 17 -4 10 -20
30 -35 45 -16 15 -26 28 -23 28 18 0 -177 156 -221 178 -19 8 -34 19 -34 24 0
4 -7 8 -15 8 -17 0 -56 20 -66 33 -3 5 -8 8 -10 7 -4 -1 -45 13 -79 27 -8 3
-18 5 -22 5 -5 -1 -8 2 -8 8 0 5 -7 7 -15 4 -8 -4 -15 -2 -15 3 0 5 -6 10 -12
11 -29 3 -63 10 -63 11 0 3 -28 8 -77 15 -15 2 -31 7 -37 10 -5 4 -13 2 -16
-4 -4 -7 -11 -7 -18 -2 -7 5 -20 8 -30 7 -9 -2 -15 1 -11 6 5 8 162 102 174
105 3 0 16 5 30 11 80 34 184 68 240 78 111 20 145 23 245 20 67 -2 139 -11
183 -23 72 -20 72 -20 83 0 10 18 -3 34 -106 135 -64 63 -119 112 -122 109 -3
-2 -15 5 -27 17 -26 27 -183 109 -251 131 -53 17 -192 46 -197 41z"/>
<path d="M967 4944 c-1 -1 -31 -5 -67 -9 -36 -4 -69 -10 -75 -13 -10 -7 -28
-11 -57 -14 -10 -1 -18 -6 -18 -10 0 -4 -7 -8 -16 -8 -18 0 -88 -36 -116 -59
-10 -8 -18 -12 -18 -8 0 18 -147 -127 -185 -183 -16 -25 -33 -47 -36 -50 -3
-3 -12 -22 -20 -42 -7 -21 -16 -38 -19 -38 -4 0 -7 -6 -8 -12 0 -7 -7 -34 -15
-60 -9 -25 -13 -49 -10 -52 4 -3 2 -6 -3 -6 -20 0 -21 -235 0 -310 8 -30 12
-58 10 -62 -3 -5 -1 -8 4 -8 5 0 15 -19 22 -42 7 -24 15 -45 19 -48 3 -3 15
-21 26 -41 51 -91 151 -194 235 -240 25 -13 47 -27 50 -30 5 -5 43 -21 48 -19
1 0 15 -6 30 -13 36 -18 115 -38 175 -43 26 -2 51 -5 55 -5 4 -1 9 -1 12 0 3
2 30 4 60 5 71 4 132 16 148 29 7 5 15 7 18 4 4 -3 28 5 55 19 27 13 52 25 56
25 5 0 16 8 26 16 9 9 17 12 17 7 0 -5 4 -4 8 1 4 6 25 23 47 39 51 38 132
123 151 159 8 15 19 27 25 27 6 0 8 4 5 9 -3 5 3 19 13 32 20 26 66 151 76
209 41 224 -33 465 -193 627 -87 88 -208 163 -292 180 -17 3 -30 9 -30 12 0 4
-10 7 -22 8 -13 0 -41 4 -63 7 -41 7 -124 13 -128 10z"/>
</g>
</svg>
